<svg xmlns="http://www.w3.org/2000/svg" width="1400" height="3430" viewBox="0 0 1400 3430"><defs><style>.cls-1{fill:#0b9b9b;}.cls-2{fill:#4f6aa8;}.cls-3{fill:#dd953e;}.cls-4{fill:#fff;}.cls-17,.cls-5,.cls-6{fill:none;stroke:#000;stroke-miterlimit:10;}.cls-5{stroke-width:0.75px;}.cls-7{fill:#c176a7;}.cls-8{fill:#7e24b2;}.cls-9{fill:#070707;}.cls-10{fill:#87a0aa;}.cls-11{fill:#4e69a7;}.cls-12{fill:#66c6c4;}.cls-13{fill:#1e9b94;}.cls-14{fill:#79d3cc;}.cls-15{fill:#0e635b;}.cls-16{fill:#5a9e96;}.cls-17{stroke-width:2px;}.cls-18{fill:#72938e;}.cls-19{fill:#9ee8db;}.cls-20{fill:#145145;}.cls-21{fill:#0cc19e;}.cls-22{fill:#f484c1;}.cls-23{fill:#b1e8dd;}.cls-24{fill:#70c3d6;}.cls-25{fill:#0e2b25;}</style></defs><title>spritesheet_karater2</title><g id="Layer_2" data-name="Layer 2"><rect class="cls-1" width="350" height="490"/><g id="hoved"><path class="cls-2" d="M135.33,298.92c.79-2.75,152.51-214.35,95.52-268.44-8.27-7.82-36.88-21.16-56-6.74-7.91,5.9-23.61,19.27-43.05,59.18,0,0-22.43-69.64-67.28-63.74C64.51,19.18-58.25,35.71,135.33,298.92Z"/><polygon class="cls-3" points="186.35 0 161.95 48.63 210.12 45.09 186.35 0"/><polygon class="cls-3" points="231.61 90.62 256.62 42.29 208.41 45.23 231.61 90.62"/><circle class="cls-3" cx="208.69" cy="44.74" r="9.23"/><polygon class="cls-3" points="5.02 45.73 35.72 90.65 55.98 46.81 5.02 45.73"/><polygon class="cls-3" points="106.22 50.11 76.1 4.79 55.28 48.37 106.22 50.11"/><circle class="cls-3" cx="54.97" cy="47.89" r="9.23"/></g><g id="ansigt"><circle class="cls-4" cx="100.81" cy="129.25" r="36.3"/><circle class="cls-4" cx="186.97" cy="129.25" r="36.3"/><circle cx="104.35" cy="141.05" r="21.64"/><circle cx="178.71" cy="139.87" r="21.64"/><line class="cls-5" x1="81.04" y1="167.9" x2="104.64" y2="171.45"/><line class="cls-5" x1="83.4" y1="170.27" x2="97.56" y2="172.63"/><line class="cls-5" x1="180.18" y1="171.45" x2="207.33" y2="166.72"/><line class="cls-5" x1="183.73" y1="173.81" x2="204.97" y2="169.09"/><path class="cls-6" d="M170,222.79H125.13s-17.7,3.54-9.44,15.35"/></g><g id="ben"><path class="cls-7" d="M169,347.24c10.62,38.95,80-33.7,62.18,120.58-.51,4.31-10.23-1.18-12.6-1.95,17.22-161.63-63.13-49.32-62.68-124.56C155.9,336,166.85,339.65,169,347.24Z"/><path d="M217.63,463.87c.87,5.76-.06,10.84-2.13,16.52,20.48,1.18,40.13,7.34,60.81,7.25S224.25,464.36,217.63,463.87Z"/><path class="cls-7" d="M110,349.6c10.63,38.95,80-33.7,62.18,120.58-.5,4.31-10.23-1.18-12.6-1.95C176.75,306.6,96.4,418.91,96.85,343.67,96.89,338.37,107.83,342,110,349.6Z"/><path d="M158.61,466.23c.87,5.76-.06,10.84-2.13,16.52,20.48,1.18,40.14,7.34,60.81,7.25S165.23,466.72,158.61,466.23Z"/></g><g id="krop"><ellipse class="cls-8" cx="133.91" cy="317.67" rx="54.05" ry="32.6"/><path class="cls-9" d="M124,283.26s13.79-.92,21.71,0l-10.95,13.89Z"/><polygon class="cls-9" points="133.91 297.21 124.99 305.04 133.91 346.8 142.84 305.04 133.91 297.21"/><rect class="cls-10" x="118.22" y="311.32" width="31.87" height="47.21" rx="14.16" ry="14.16"/></g><g id="arme"><path class="cls-7" d="M87.53,301.78c-78.74,20.29,12.51,41.71,35,39.61.4,0,4.92-10.62-6-10.8s-25.31-6.94-39.16-9.31c-6.52-1.11,13.63-7.38,16.88-6.82C94.53,314.49,90.74,301.06,87.53,301.78Z"/><path class="cls-11" d="M121.76,342c-3,.8-2.15-11.62.76-10.63C137.1,336.77,129.52,339.88,121.76,342Z"/><path class="cls-7" d="M180.49,300.6c78.74,20.29-12.51,41.71-35,39.61-.4,0-4.91-10.62,6-10.8s25.31-6.94,39.17-9.31c6.51-1.11-13.64-7.38-16.89-6.82C173.55,313.31,177.33,299.88,180.49,300.6Z"/><path class="cls-11" d="M146.65,340.83c3,.8,2.15-11.62-.77-10.63C131.27,335.59,138.88,338.7,146.65,340.83Z"/></g></g><g id="Layer_3" data-name="Layer 3"><rect class="cls-12" y="490" width="350" height="490"/><g id="hoved-2" data-name="hoved"><path class="cls-2" d="M135.33,788.92c.79-2.75,152.51-214.35,95.52-268.44-8.27-7.82-36.88-21.16-56-6.74-7.91,5.9-23.61,19.27-43.05,59.18,0,0-22.43-69.64-67.28-63.74C64.51,509.18-58.25,525.71,135.33,788.92Z"/><polygon class="cls-3" points="186.35 490 161.95 538.63 210.12 535.09 186.35 490"/><polygon class="cls-3" points="231.61 580.62 256.62 532.29 208.41 535.23 231.61 580.62"/><circle class="cls-3" cx="208.69" cy="534.74" r="9.23"/><polygon class="cls-3" points="5.02 535.73 35.72 580.65 55.98 536.81 5.02 535.73"/><polygon class="cls-3" points="106.22 540.11 76.1 494.79 55.28 538.37 106.22 540.11"/><circle class="cls-3" cx="54.97" cy="537.89" r="9.23"/></g><g id="ansigt-2" data-name="ansigt"><circle class="cls-4" cx="100.81" cy="619.25" r="36.3"/><circle class="cls-4" cx="186.97" cy="619.25" r="36.3"/><circle cx="104.35" cy="631.05" r="21.64"/><circle cx="178.71" cy="629.87" r="21.64"/><line class="cls-5" x1="81.04" y1="657.9" x2="104.64" y2="661.45"/><line class="cls-5" x1="83.4" y1="660.27" x2="97.56" y2="662.63"/><line class="cls-5" x1="180.18" y1="661.45" x2="207.33" y2="656.72"/><line class="cls-5" x1="183.73" y1="663.81" x2="204.97" y2="659.09"/><path class="cls-6" d="M170,712.79H125.13s-17.7,3.54-9.44,15.35"/></g><g id="ben-2" data-name="ben"><path class="cls-7" d="M169,837.24c10.62,39,80-33.7,62.18,120.58-.51,4.31-10.23-1.18-12.6-2,17.22-161.63-63.13-49.32-62.68-124.56C155.9,826,166.85,829.65,169,837.24Z"/><path d="M217.63,953.87c.87,5.76-.06,10.84-2.13,16.52,20.48,1.18,40.13,7.34,60.81,7.25S224.25,954.36,217.63,953.87Z"/><path class="cls-7" d="M110,839.6c10.63,38.95,80-33.7,62.18,120.58-.5,4.31-10.23-1.18-12.6-1.95C176.75,796.6,96.4,908.91,96.85,833.67,96.89,828.37,107.83,832,110,839.6Z"/><path d="M158.61,956.23c.87,5.76-.06,10.84-2.13,16.52,20.48,1.18,40.14,7.34,60.81,7.25S165.23,956.72,158.61,956.23Z"/></g><g id="krop-2" data-name="krop"><ellipse class="cls-8" cx="133.91" cy="807.67" rx="54.05" ry="32.6"/><path class="cls-9" d="M124,773.26s13.79-.92,21.71,0l-10.95,13.89Z"/><polygon class="cls-9" points="133.91 787.21 124.99 795.04 133.91 836.8 142.84 795.04 133.91 787.21"/><rect class="cls-10" x="118.22" y="801.32" width="31.87" height="47.21" rx="14.16" ry="14.16"/></g><g id="arme-2" data-name="arme"><path class="cls-7" d="M87.7,792c-77.25,21.24,6.45,39.92,34.4,35.87.51-.07,2.53-11.07-7.25-10.05S88.5,813.13,77.4,810.7c-5.21-1.18,14.58-6.56,16.78-7C94.33,803.68,90.78,791.11,87.7,792Z"/><path class="cls-11" d="M121.13,829.13c-3.89.88-2.21-10.83.3-10C134,823,131.31,826.82,121.13,829.13Z"/><path class="cls-7" d="M180.49,790.6c78.74,20.29-12.51,41.71-35,39.61-.4,0-4.91-10.62,6-10.8s25.31-6.94,39.17-9.31c6.51-1.11-13.64-7.38-16.89-6.82C173.55,803.31,177.33,789.88,180.49,790.6Z"/><path class="cls-11" d="M146.65,830.83c3,.8,2.15-11.62-.77-10.63C131.27,825.59,138.88,828.7,146.65,830.83Z"/></g></g><g id="Layer_4" data-name="Layer 4"><rect class="cls-13" x="350" y="490" width="350" height="490"/><g id="hoved-3" data-name="hoved"><path class="cls-2" d="M485.33,788.92c.79-2.75,152.51-214.35,95.52-268.44-8.27-7.82-36.88-21.16-56-6.74-7.91,5.9-23.61,19.27-43.05,59.18,0,0-22.43-69.64-67.28-63.74C414.51,509.18,291.75,525.71,485.33,788.92Z"/><polygon class="cls-3" points="536.35 490 511.95 538.63 560.12 535.09 536.35 490"/><polygon class="cls-3" points="581.61 580.62 606.62 532.29 558.41 535.23 581.61 580.62"/><circle class="cls-3" cx="558.69" cy="534.74" r="9.23"/><polygon class="cls-3" points="355.02 535.73 385.72 580.65 405.98 536.81 355.02 535.73"/><polygon class="cls-3" points="456.22 540.11 426.1 494.79 405.28 538.37 456.22 540.11"/><circle class="cls-3" cx="404.97" cy="537.89" r="9.23"/></g><g id="ansigt-3" data-name="ansigt"><circle class="cls-4" cx="450.81" cy="619.25" r="36.3"/><circle class="cls-4" cx="536.97" cy="619.25" r="36.3"/><circle cx="454.35" cy="631.05" r="21.64"/><circle cx="528.71" cy="629.87" r="21.64"/><line class="cls-5" x1="431.04" y1="657.9" x2="454.64" y2="661.45"/><line class="cls-5" x1="433.4" y1="660.27" x2="447.56" y2="662.63"/><line class="cls-5" x1="530.18" y1="661.45" x2="557.33" y2="656.72"/><line class="cls-5" x1="533.73" y1="663.81" x2="554.97" y2="659.09"/><path class="cls-6" d="M520,712.79H475.13s-17.7,3.54-9.44,15.35"/></g><g id="ben-3" data-name="ben"><path class="cls-7" d="M519,837.24c10.62,39,80-33.7,62.18,120.58-.51,4.31-10.23-1.18-12.6-2,17.22-161.63-63.13-49.32-62.68-124.56C505.9,826,516.85,829.65,519,837.24Z"/><path d="M567.63,953.87c.87,5.76-.06,10.84-2.13,16.52,20.48,1.18,40.13,7.34,60.81,7.25S574.25,954.36,567.63,953.87Z"/><path class="cls-7" d="M460,839.6c10.63,38.95,80-33.7,62.18,120.58-.5,4.31-10.23-1.18-12.6-1.95,17.22-161.63-63.13-49.32-62.68-124.56C446.89,828.37,457.83,832,460,839.6Z"/><path d="M508.61,956.23c.87,5.76-.06,10.84-2.13,16.52,20.48,1.18,40.14,7.34,60.81,7.25S515.23,956.72,508.61,956.23Z"/></g><g id="krop-3" data-name="krop"><ellipse class="cls-8" cx="483.91" cy="807.67" rx="54.05" ry="32.6"/><path class="cls-9" d="M474,773.26s13.79-.92,21.71,0l-10.95,13.89Z"/><polygon class="cls-9" points="483.92 787.21 474.99 795.04 483.92 836.8 492.84 795.04 483.92 787.21"/><rect class="cls-10" x="468.22" y="801.32" width="31.87" height="47.21" rx="14.16" ry="14.16"/></g><g id="arme-3" data-name="arme"><path class="cls-7" d="M437.7,792c-77.25,21.24,6.45,39.92,34.4,35.87.51-.07,2.53-11.07-7.25-10.05s-26.35-4.65-37.45-7.08c-5.21-1.18,14.58-6.56,16.78-7C444.33,803.68,440.78,791.11,437.7,792Z"/><path class="cls-11" d="M471.13,829.13c-3.89.88-2.21-10.83.3-10C484,823,481.31,826.82,471.13,829.13Z"/><path class="cls-7" d="M530.4,790.75c76.78,21.64-7.23,40.64-35.24,36.81-.5-.06-2.6-11.12,7.27-10.11s26.88-5.27,38.09-7.82c5.26-1.18-14.53-6.6-16.67-7.09C523.69,802.5,527.34,789.89,530.4,790.75Z"/><path class="cls-11" d="M496.54,828.86c3.91.84,2.15-10.84-.36-10.05C483.56,822.84,486.26,826.62,496.54,828.86Z"/></g></g><g id="Layer_5" data-name="Layer 5"><rect class="cls-14" x="700" y="490" width="350" height="490"/><g id="hoved-4" data-name="hoved"><path class="cls-2" d="M835.33,788.92c.79-2.75,152.51-214.35,95.52-268.44-8.27-7.82-36.88-21.16-56-6.74-7.91,5.9-23.61,19.27-43.05,59.18,0,0-22.43-69.64-67.28-63.74C764.51,509.18,641.75,525.71,835.33,788.92Z"/><polygon class="cls-3" points="886.35 490 861.95 538.63 910.12 535.09 886.35 490"/><polygon class="cls-3" points="931.61 580.62 956.62 532.29 908.41 535.23 931.61 580.62"/><circle class="cls-3" cx="908.69" cy="534.74" r="9.23"/><polygon class="cls-3" points="705.02 535.73 735.72 580.65 755.98 536.81 705.02 535.73"/><polygon class="cls-3" points="806.22 540.11 776.1 494.79 755.28 538.37 806.22 540.11"/><circle class="cls-3" cx="754.97" cy="537.89" r="9.23"/></g><g id="ansigt-4" data-name="ansigt"><circle class="cls-4" cx="800.81" cy="619.25" r="36.3"/><circle class="cls-4" cx="886.97" cy="619.25" r="36.3"/><circle cx="804.35" cy="631.05" r="21.64"/><circle cx="878.71" cy="629.87" r="21.64"/><line class="cls-5" x1="781.04" y1="657.9" x2="804.64" y2="661.45"/><line class="cls-5" x1="783.4" y1="660.27" x2="797.56" y2="662.63"/><line class="cls-5" x1="880.18" y1="661.45" x2="907.33" y2="656.72"/><line class="cls-5" x1="883.73" y1="663.81" x2="904.97" y2="659.09"/><path class="cls-6" d="M870,712.79H825.13s-17.7,3.54-9.44,15.35"/></g><g id="ben-4" data-name="ben"><path class="cls-7" d="M869,837.24c10.62,39,80-33.7,62.18,120.58-.51,4.31-10.23-1.18-12.6-2,17.22-161.63-63.13-49.32-62.68-124.56C855.9,826,866.85,829.65,869,837.24Z"/><path d="M917.63,953.87c.87,5.76-.06,10.84-2.13,16.52,20.48,1.18,40.13,7.34,60.81,7.25S924.25,954.36,917.63,953.87Z"/><path class="cls-7" d="M810,839.6c10.63,38.95,80-33.7,62.18,120.58-.5,4.31-10.23-1.18-12.6-1.95,17.22-161.63-63.13-49.32-62.68-124.56C796.89,828.37,807.83,832,810,839.6Z"/><path d="M858.61,956.23c.87,5.76-.06,10.84-2.13,16.52,20.48,1.18,40.14,7.34,60.81,7.25S865.23,956.72,858.61,956.23Z"/></g><g id="krop-4" data-name="krop"><ellipse class="cls-8" cx="833.91" cy="807.67" rx="54.05" ry="32.6"/><path class="cls-9" d="M824,773.26s13.79-.92,21.71,0l-11,13.89Z"/><polygon class="cls-9" points="833.91 787.21 824.99 795.04 833.91 836.8 842.84 795.04 833.91 787.21"/><rect class="cls-10" x="818.22" y="801.32" width="31.87" height="47.21" rx="14.16" ry="14.16"/></g><g id="arme-4" data-name="arme"><path class="cls-7" d="M788,792.06c-73.53,21.11,4,42.37,33.64,42.83.54,0,3-10.63-6.41-10.86s-27-10.52-37.2-13.53c-4.78-1.42,14.75-5.83,16.17-7C794.27,803.42,790.89,791.23,788,792.06Z"/><path class="cls-11" d="M820.18,836.73c-4.34,0-.26-10.38,2-9.3C833.38,832.79,831.48,836.65,820.18,836.73Z"/><path class="cls-7" d="M880.4,790.75c76.78,21.64-7.23,40.64-35.24,36.81-.5-.06-2.6-11.12,7.27-10.11s26.88-5.27,38.09-7.82c5.26-1.18-14.53-6.6-16.67-7.09C873.69,802.5,877.34,789.89,880.4,790.75Z"/><path class="cls-11" d="M846.54,828.86c3.91.84,2.15-10.84-.36-10.05C833.56,822.84,836.26,826.62,846.54,828.86Z"/></g></g><g id="Layer_7" data-name="Layer 7"><g id="Layer_6" data-name="Layer 6"><rect class="cls-15" x="1050" y="490" width="350" height="490"/><g id="hoved-5" data-name="hoved"><path class="cls-2" d="M1185.33,788.92c.79-2.75,152.51-214.35,95.52-268.44-8.27-7.82-36.88-21.16-56-6.74-7.91,5.9-23.61,19.27-43,59.18,0,0-22.43-69.64-67.28-63.74C1114.51,509.18,991.75,525.71,1185.33,788.92Z"/><polygon class="cls-3" points="1236.35 490 1211.95 538.63 1260.12 535.09 1236.35 490"/><polygon class="cls-3" points="1281.61 580.62 1306.62 532.29 1258.41 535.23 1281.61 580.62"/><circle class="cls-3" cx="1258.69" cy="534.74" r="9.23"/><polygon class="cls-3" points="1055.02 535.73 1085.72 580.65 1105.98 536.81 1055.02 535.73"/><polygon class="cls-3" points="1156.22 540.11 1126.1 494.79 1105.28 538.37 1156.22 540.11"/><circle class="cls-3" cx="1104.97" cy="537.89" r="9.23"/></g><g id="ansigt-5" data-name="ansigt"><circle class="cls-4" cx="1150.81" cy="619.25" r="36.3"/><circle class="cls-4" cx="1236.97" cy="619.25" r="36.3"/><circle cx="1154.35" cy="631.05" r="21.64"/><circle cx="1228.71" cy="629.87" r="21.64"/><line class="cls-5" x1="1131.04" y1="657.9" x2="1154.64" y2="661.45"/><line class="cls-5" x1="1133.4" y1="660.27" x2="1147.56" y2="662.63"/><line class="cls-5" x1="1230.18" y1="661.45" x2="1257.33" y2="656.72"/><line class="cls-5" x1="1233.73" y1="663.81" x2="1254.97" y2="659.09"/><path class="cls-6" d="M1220,712.79h-44.86s-17.7,3.54-9.44,15.35"/></g><g id="ben-5" data-name="ben"><path class="cls-7" d="M1219,837.24c10.62,39,80-33.7,62.18,120.58-.51,4.31-10.23-1.18-12.6-2,17.22-161.63-63.13-49.32-62.68-124.56C1205.9,826,1216.85,829.65,1219,837.24Z"/><path d="M1267.63,953.87c.87,5.76-.06,10.84-2.13,16.52,20.48,1.18,40.13,7.34,60.81,7.25S1274.25,954.36,1267.63,953.87Z"/><path class="cls-7" d="M1160,839.6c10.63,38.95,80-33.7,62.18,120.58-.5,4.31-10.23-1.18-12.6-1.95,17.22-161.63-63.13-49.32-62.68-124.56C1146.89,828.37,1157.83,832,1160,839.6Z"/><path d="M1208.61,956.23c.87,5.76-.06,10.84-2.13,16.52,20.48,1.18,40.14,7.34,60.81,7.25S1215.23,956.72,1208.61,956.23Z"/></g><g id="krop-5" data-name="krop"><ellipse class="cls-8" cx="1183.91" cy="807.67" rx="54.05" ry="32.6"/><path class="cls-9" d="M1174,773.26s13.79-.92,21.71,0l-11,13.89Z"/><polygon class="cls-9" points="1183.91 787.21 1174.99 795.04 1183.91 836.8 1192.84 795.04 1183.91 787.21"/><rect class="cls-10" x="1168.22" y="801.32" width="31.87" height="47.21" rx="14.16" ry="14.16"/></g><g id="arme-5" data-name="arme"><path class="cls-7" d="M1137.7,792c-77.25,21.24,6.45,39.92,34.4,35.87.51-.07,2.53-11.07-7.25-10.05s-26.35-4.65-37.45-7.08c-5.21-1.18,14.58-6.56,16.78-7C1144.33,803.68,1140.78,791.11,1137.7,792Z"/><path class="cls-11" d="M1171.13,829.13c-3.89.88-2.21-10.83.3-10C1184,823,1181.31,826.82,1171.13,829.13Z"/><path class="cls-7" d="M1230.4,790.75c76.78,21.64-7.23,40.64-35.24,36.81-.5-.06-2.6-11.12,7.27-10.11s26.88-5.27,38.09-7.82c5.26-1.18-14.53-6.6-16.67-7.09C1223.69,802.5,1227.34,789.89,1230.4,790.75Z"/><path class="cls-11" d="M1196.54,828.86c3.91.84,2.15-10.84-.36-10.05C1183.56,822.84,1186.26,826.62,1196.54,828.86Z"/></g></g><rect class="cls-16" y="980" width="350" height="490"/><g id="hoved-6" data-name="hoved"><path class="cls-2" d="M135.33,1278.92c.79-2.75,152.51-214.35,95.52-268.44-8.27-7.82-36.88-21.16-56-6.74-7.91,5.9-23.61,19.27-43.05,59.18,0,0-22.43-69.64-67.28-63.74C64.51,999.18-58.25,1015.71,135.33,1278.92Z"/><polygon class="cls-3" points="186.35 980 161.95 1028.63 210.12 1025.09 186.35 980"/><polygon class="cls-3" points="231.61 1070.62 256.62 1022.29 208.41 1025.23 231.61 1070.62"/><circle class="cls-3" cx="208.69" cy="1024.74" r="9.23"/><polygon class="cls-3" points="5.02 1025.73 35.72 1070.65 55.98 1026.81 5.02 1025.73"/><polygon class="cls-3" points="106.22 1030.11 76.1 984.79 55.28 1028.37 106.22 1030.11"/><circle class="cls-3" cx="54.97" cy="1027.89" r="9.23"/></g><g id="ansigt-6" data-name="ansigt"><line class="cls-5" x1="81.04" y1="1147.9" x2="104.64" y2="1151.45"/><line class="cls-5" x1="83.4" y1="1150.27" x2="97.56" y2="1152.63"/><line class="cls-5" x1="180.18" y1="1151.45" x2="207.33" y2="1146.72"/><line class="cls-5" x1="183.73" y1="1153.81" x2="204.97" y2="1149.09"/><path class="cls-6" d="M170,1202.79H125.13s-17.7,3.54-9.44,15.35"/><line id="blink" class="cls-17" x1="81.63" y1="1108.36" x2="137.1" y2="1108.36"/><line id="blink-2" class="cls-17" x1="167.79" y1="1108.36" x2="223.27" y2="1108.36"/></g><g id="ben-6" data-name="ben"><path class="cls-7" d="M169,1327.24c10.62,39,80-33.7,62.18,120.58-.51,4.31-10.23-1.18-12.6-2,17.22-161.63-63.13-49.32-62.68-124.56C155.9,1316,166.85,1319.65,169,1327.24Z"/><path d="M217.63,1443.87c.87,5.76-.06,10.84-2.13,16.52,20.48,1.18,40.13,7.34,60.81,7.25S224.25,1444.36,217.63,1443.87Z"/><path class="cls-7" d="M110,1329.6c10.63,39,80-33.7,62.18,120.58-.5,4.31-10.23-1.18-12.6-2,17.22-161.63-63.13-49.32-62.68-124.56C96.89,1318.37,107.83,1322,110,1329.6Z"/><path d="M158.61,1446.23c.87,5.76-.06,10.84-2.13,16.52,20.48,1.18,40.14,7.34,60.81,7.25S165.23,1446.72,158.61,1446.23Z"/></g><g id="krop-6" data-name="krop"><ellipse class="cls-8" cx="133.91" cy="1297.67" rx="54.05" ry="32.6"/><path class="cls-9" d="M124,1263.26s13.79-.92,21.71,0l-10.95,13.89Z"/><polygon class="cls-9" points="133.91 1277.21 124.99 1285.04 133.91 1326.8 142.84 1285.04 133.91 1277.21"/><rect class="cls-10" x="118.22" y="1291.32" width="31.87" height="47.21" rx="14.16" ry="14.16"/></g><g id="arme-6" data-name="arme"><path class="cls-7" d="M87.7,1282c-77.25,21.24,6.45,39.92,34.4,35.87.51-.07,2.53-11.07-7.25-10s-26.35-4.65-37.45-7.08c-5.21-1.18,14.58-6.56,16.78-7C94.33,1293.68,90.78,1281.11,87.7,1282Z"/><path class="cls-11" d="M121.13,1319.13c-3.89.88-2.21-10.83.3-10C134,1313,131.31,1316.82,121.13,1319.13Z"/><path class="cls-7" d="M180.49,1280.6c78.74,20.29-12.51,41.71-35,39.61-.4,0-4.91-10.62,6-10.8s25.31-6.94,39.17-9.31c6.51-1.11-13.64-7.38-16.89-6.82C173.55,1293.31,177.33,1279.88,180.49,1280.6Z"/><path class="cls-11" d="M146.65,1320.83c3,.8,2.15-11.62-.77-10.63C131.27,1315.59,138.88,1318.7,146.65,1320.83Z"/></g></g><g id="Layer_8" data-name="Layer 8"><rect class="cls-18" x="350" y="980" width="350" height="490"/><g id="hoved-7" data-name="hoved"><path class="cls-2" d="M485.33,1278.92c.79-2.75,152.51-214.35,95.52-268.44-8.27-7.82-36.88-21.16-56-6.74-7.91,5.9-23.61,19.27-43.05,59.18,0,0-22.43-69.64-67.28-63.74C414.51,999.18,291.75,1015.71,485.33,1278.92Z"/><polygon class="cls-3" points="536.35 980 511.95 1028.63 560.12 1025.09 536.35 980"/><polygon class="cls-3" points="581.61 1070.62 606.62 1022.29 558.41 1025.23 581.61 1070.62"/><circle class="cls-3" cx="558.69" cy="1024.74" r="9.23"/><polygon class="cls-3" points="355.02 1025.73 385.72 1070.65 405.98 1026.81 355.02 1025.73"/><polygon class="cls-3" points="456.22 1030.11 426.1 984.79 405.28 1028.37 456.22 1030.11"/><circle class="cls-3" cx="404.97" cy="1027.89" r="9.23"/></g><g id="ansigt-7" data-name="ansigt"><circle class="cls-4" cx="450.81" cy="1109.25" r="36.3"/><circle class="cls-4" cx="536.97" cy="1109.25" r="36.3"/><circle cx="454.35" cy="1121.05" r="21.64"/><circle cx="528.71" cy="1119.87" r="21.64"/><line class="cls-5" x1="431.04" y1="1147.9" x2="454.64" y2="1151.45"/><line class="cls-5" x1="433.4" y1="1150.27" x2="447.56" y2="1152.63"/><line class="cls-5" x1="530.18" y1="1151.45" x2="557.33" y2="1146.72"/><line class="cls-5" x1="533.73" y1="1153.81" x2="554.97" y2="1149.09"/><path class="cls-6" d="M520,1202.79H475.13s-17.7,3.54-9.44,15.35"/></g><g id="ben-7" data-name="ben"><path class="cls-7" d="M519,1327.24c10.62,39,80-33.7,62.18,120.58-.51,4.31-10.23-1.18-12.6-2,17.22-161.63-63.13-49.32-62.68-124.56C505.9,1316,516.85,1319.65,519,1327.24Z"/><path d="M567.63,1443.87c.87,5.76-.06,10.84-2.13,16.52,20.48,1.18,40.13,7.34,60.81,7.25S574.25,1444.36,567.63,1443.87Z"/><path class="cls-7" d="M460,1329.6c10.63,39,80-33.7,62.18,120.58-.5,4.31-10.23-1.18-12.6-2,17.22-161.63-63.13-49.32-62.68-124.56C446.89,1318.37,457.83,1322,460,1329.6Z"/><path d="M508.61,1446.23c.87,5.76-.06,10.84-2.13,16.52,20.48,1.18,40.14,7.34,60.81,7.25S515.23,1446.72,508.61,1446.23Z"/></g><g id="krop-7" data-name="krop"><ellipse class="cls-8" cx="483.91" cy="1297.67" rx="54.05" ry="32.6"/><path class="cls-9" d="M474,1263.26s13.79-.92,21.71,0l-10.95,13.89Z"/><polygon class="cls-9" points="483.92 1277.21 474.99 1285.04 483.92 1326.8 492.84 1285.04 483.92 1277.21"/><rect class="cls-10" x="468.22" y="1291.32" width="31.87" height="47.21" rx="14.16" ry="14.16"/></g><g id="arme-7" data-name="arme"><path class="cls-7" d="M437.53,1281.78c-78.74,20.29,12.51,41.71,35,39.61.4,0,4.92-10.62-6-10.8s-25.31-6.94-39.16-9.31c-6.52-1.11,13.63-7.38,16.88-6.82C444.53,1294.49,440.74,1281.06,437.53,1281.78Z"/><path class="cls-11" d="M471.76,1322c-3,.8-2.15-11.62.76-10.63C487.1,1316.77,479.52,1319.88,471.76,1322Z"/><path class="cls-7" d="M530.49,1280.6c78.74,20.29-12.51,41.71-35,39.61-.4,0-4.91-10.62,6-10.8s25.31-6.94,39.17-9.31c6.51-1.11-13.64-7.38-16.89-6.82C523.55,1293.31,527.33,1279.88,530.49,1280.6Z"/><path class="cls-11" d="M496.65,1320.83c3,.8,2.15-11.62-.77-10.63C481.27,1315.59,488.88,1318.7,496.65,1320.83Z"/></g></g><g id="Layer_9" data-name="Layer 9"><rect class="cls-19" y="1470" width="350" height="490"/><g id="hoved-8" data-name="hoved"><path class="cls-2" d="M132.46,1768.92c.79-2.75,152.51-214.35,95.51-268.44-8.26-7.82-36.88-21.16-56-6.74-7.91,5.9-23.61,19.27-43.05,59.18,0,0-22.42-69.64-67.28-63.74C61.63,1489.18-61.12,1505.71,132.46,1768.92Z"/><polygon class="cls-3" points="183.47 1470 159.07 1518.63 207.24 1515.09 183.47 1470"/><polygon class="cls-3" points="228.74 1560.62 253.75 1512.29 205.53 1515.23 228.74 1560.62"/><circle class="cls-3" cx="205.81" cy="1514.74" r="9.23"/><polygon class="cls-3" points="2.14 1515.73 32.84 1560.65 53.1 1516.81 2.14 1515.73"/><polygon class="cls-3" points="103.35 1520.11 73.22 1474.79 52.4 1518.37 103.35 1520.11"/><circle class="cls-3" cx="52.1" cy="1517.89" r="9.23"/></g><g id="ansigt-8" data-name="ansigt"><circle class="cls-4" cx="97.93" cy="1599.25" r="36.3"/><circle class="cls-4" cx="184.1" cy="1599.25" r="36.3"/><circle cx="97.93" cy="1600.43" r="21.64"/><circle cx="185.28" cy="1600.43" r="21.64"/><line class="cls-5" x1="78.16" y1="1637.9" x2="101.77" y2="1641.45"/><line class="cls-5" x1="80.52" y1="1640.27" x2="94.68" y2="1642.63"/><line class="cls-5" x1="177.31" y1="1641.45" x2="204.46" y2="1636.72"/><line class="cls-5" x1="180.85" y1="1643.81" x2="202.1" y2="1639.09"/><path class="cls-6" d="M167.11,1692.79H122.26s-17.71,3.54-9.45,15.35"/></g><g id="ben-8" data-name="ben"><path class="cls-7" d="M166.1,1817.24c10.62,39,80-33.7,62.18,120.58-.51,4.31-10.24-1.18-12.61-2,17.22-161.63-63.13-49.32-62.68-124.56C153,1806,164,1809.65,166.1,1817.24Z"/><path d="M213.69,1931.46c3.08,5,4.23,10,4.55,16,19.29-7,39.8-9.14,58.74-17.4S220,1929.3,213.69,1931.46Z"/><path class="cls-7" d="M107.08,1819.6c10.62,39,80-33.7,62.18,120.58-.51,4.31-10.24-1.18-12.61-2,17.22-161.63-63.12-49.32-62.67-124.56C94,1808.37,105,1812,107.08,1819.6Z"/><path d="M155.73,1936.23c.87,5.76-.06,10.84-2.12,16.52,20.48,1.18,40.13,7.34,60.81,7.25S162.35,1936.72,155.73,1936.23Z"/></g><g id="krop-8" data-name="krop"><ellipse class="cls-8" cx="131.04" cy="1787.67" rx="54.05" ry="32.6"/><path class="cls-9" d="M121.1,1753.26s13.8-.92,21.72,0l-11,13.89Z"/><polygon class="cls-9" points="131.04 1767.21 122.11 1775.04 131.04 1816.8 139.96 1775.04 131.04 1767.21"/><rect class="cls-10" x="115.34" y="1781.32" width="31.87" height="47.21" rx="14.16" ry="14.16"/></g><g id="arme-8" data-name="arme"><path class="cls-7" d="M84.65,1771.78c-78.74,20.29,12.51,41.71,35,39.61.4,0,4.92-10.62-6-10.8s-25.3-6.94-39.16-9.31c-6.52-1.11,13.63-7.38,16.88-6.82C91.65,1784.49,87.86,1771.06,84.65,1771.78Z"/><path class="cls-11" d="M118.88,1812c-3,.8-2.15-11.62.77-10.63C134.23,1806.77,126.65,1809.88,118.88,1812Z"/><path class="cls-7" d="M177.62,1770.6c78.74,20.29-12.52,41.71-35,39.61-.4,0-4.91-10.62,6-10.8s25.31-6.94,39.18-9.31c6.5-1.11-13.65-7.38-16.89-6.82C170.67,1783.31,174.45,1769.88,177.62,1770.6Z"/><path class="cls-11" d="M143.77,1810.83c3,.8,2.15-11.62-.76-10.63C128.39,1805.59,136,1808.7,143.77,1810.83Z"/></g></g><g id="Layer_11" data-name="Layer 11"><rect class="cls-20" y="1960" width="350" height="490"/><g id="hoved-9" data-name="hoved"><path class="cls-2" d="M135.33,2258.92c.79-2.75,152.51-214.35,95.52-268.44-8.27-7.82-36.88-21.16-56-6.74-7.91,5.9-23.61,19.27-43.05,59.18,0,0-22.43-69.64-67.28-63.74C64.51,1979.18-58.25,1995.71,135.33,2258.92Z"/><polygon class="cls-3" points="186.35 1960 161.95 2008.63 210.12 2005.09 186.35 1960"/><polygon class="cls-3" points="231.61 2050.62 256.62 2002.29 208.41 2005.23 231.61 2050.62"/><circle class="cls-3" cx="208.69" cy="2004.74" r="9.23"/><polygon class="cls-3" points="5.02 2005.73 35.72 2050.65 55.98 2006.81 5.02 2005.73"/><polygon class="cls-3" points="106.22 2010.11 76.1 1964.79 55.28 2008.37 106.22 2010.11"/><circle class="cls-3" cx="54.97" cy="2007.89" r="9.23"/></g><g id="ansigt-9" data-name="ansigt"><line class="cls-5" x1="81.04" y1="2127.9" x2="104.64" y2="2131.45"/><line class="cls-5" x1="83.4" y1="2130.27" x2="97.56" y2="2132.63"/><line class="cls-5" x1="180.18" y1="2131.45" x2="207.33" y2="2126.72"/><line class="cls-5" x1="183.73" y1="2133.81" x2="204.97" y2="2129.09"/><path id="frustreret" class="cls-6" d="M112.31,2186.33s5.91-14.16,13,0c0,0,2.36,10.63,9.44,0,0,0,7.08-11.8,8.26-1.18,0,0,8.27,17.71,13,0,0,0,3.54-13,10.62,1.18,0,0,3.54,10.63,8.26,0"/><line class="cls-6" x1="81.04" y1="2072.43" x2="119.99" y2="2098.4"/><line class="cls-6" x1="119.99" y1="2098.4" x2="81.04" y2="2117.28"/><line class="cls-6" x1="202.61" y1="2070.07" x2="163.66" y2="2096.04"/><line class="cls-6" x1="163.66" y1="2096.04" x2="202.61" y2="2114.92"/></g><g id="ben-9" data-name="ben"><path class="cls-7" d="M169,2307.24c10.62,39,80-33.7,62.18,120.58-.51,4.31-10.23-1.18-12.6-2,17.22-161.63-63.13-49.32-62.68-124.56C155.9,2296,166.85,2299.65,169,2307.24Z"/><path class="cls-7" d="M110,2309.6c10.63,39,80-33.7,62.18,120.58-.5,4.31-10.23-1.18-12.6-1.95,17.22-161.63-63.13-49.32-62.68-124.56C96.89,2298.37,107.83,2302,110,2309.6Z"/><path d="M158.61,2426.23c.87,5.76-.06,10.84-2.13,16.52,20.48,1.18,40.14,7.34,60.81,7.25S165.23,2426.72,158.61,2426.23Z"/><path d="M217.63,2425.05c.87,5.76-.06,10.84-2.13,16.52,20.48,1.18,40.13,7.34,60.81,7.25S224.25,2425.54,217.63,2425.05Z"/></g><g id="krop-9" data-name="krop"><ellipse class="cls-8" cx="133.91" cy="2277.67" rx="54.05" ry="32.6"/><path class="cls-9" d="M124,2243.26s13.79-.92,21.71,0l-10.95,13.89Z"/><polygon class="cls-9" points="133.91 2257.21 124.99 2265.04 133.91 2306.8 142.84 2265.04 133.91 2257.21"/><rect class="cls-10" x="118.22" y="2271.32" width="31.87" height="47.21" rx="14.16" ry="14.16"/></g><g id="arme-9" data-name="arme"><path class="cls-7" d="M87.53,2261.78c-78.74,20.29,12.51,41.71,35,39.61.4,0,4.92-10.62-6-10.8s-25.31-6.94-39.16-9.31c-6.52-1.11,13.63-7.38,16.88-6.82C94.53,2274.49,90.74,2261.06,87.53,2261.78Z"/><path class="cls-11" d="M121.76,2302c-3,.8-2.15-11.62.76-10.63C137.1,2296.77,129.52,2299.88,121.76,2302Z"/><path class="cls-7" d="M180.49,2260.6c78.74,20.29-12.51,41.71-35,39.61-.4,0-4.91-10.62,6-10.8s25.31-6.94,39.17-9.31c6.51-1.11-13.64-7.38-16.89-6.82C173.55,2273.31,177.33,2259.88,180.49,2260.6Z"/><path class="cls-11" d="M146.65,2300.83c3,.8,2.15-11.62-.77-10.63C131.27,2295.59,138.88,2298.7,146.65,2300.83Z"/></g></g><g id="Layer_12" data-name="Layer 12"><rect class="cls-21" y="2450" width="350" height="490"/><g id="hoved-10" data-name="hoved"><path class="cls-2" d="M135.33,2748.92c.79-2.75,152.51-214.35,95.52-268.44-8.27-7.82-36.88-21.16-56-6.74-7.91,5.9-23.61,19.27-43.05,59.18,0,0-22.43-69.64-67.28-63.74C64.51,2469.18-58.25,2485.71,135.33,2748.92Z"/><polygon class="cls-3" points="186.35 2450 161.95 2498.63 210.12 2495.09 186.35 2450"/><polygon class="cls-3" points="231.61 2540.62 256.62 2492.29 208.41 2495.23 231.61 2540.62"/><circle class="cls-3" cx="208.69" cy="2494.74" r="9.23"/><polygon class="cls-3" points="5.02 2495.73 35.72 2540.65 55.98 2496.81 5.02 2495.73"/><polygon class="cls-3" points="106.22 2500.11 76.1 2454.79 55.28 2498.37 106.22 2500.11"/><circle class="cls-3" cx="54.97" cy="2497.89" r="9.23"/></g><g id="ansigt-10" data-name="ansigt"><circle class="cls-4" cx="100.81" cy="2579.25" r="36.3"/><circle class="cls-4" cx="186.97" cy="2579.25" r="36.3"/><circle cx="104.35" cy="2591.05" r="21.64"/><circle cx="178.71" cy="2589.87" r="21.64"/><g id="main"><path d="M139.46,2682c-16.76-2.25-29,4.2-41.24-5.58-13.74-11,31.81-17.71,40.31-12.41,8.81-3.37,35.41-2,39.22,5.79C183.77,2682.15,141.47,2682.29,139.46,2682Z"/><path class="cls-22" d="M138.28,2682.53c7.84-16.38,23.88-11.39,37.6-5.9C164.85,2685,151.27,2683.41,138.28,2682.53Z"/></g><line class="cls-5" x1="81.04" y1="2617.9" x2="104.64" y2="2621.45"/><line class="cls-5" x1="83.4" y1="2620.27" x2="97.56" y2="2622.63"/><line class="cls-5" x1="180.18" y1="2621.45" x2="207.33" y2="2616.72"/><line class="cls-5" x1="183.73" y1="2623.81" x2="204.97" y2="2619.09"/><line class="cls-17" x1="74.19" y1="2525.34" x2="126.84" y2="2551.13"/><line class="cls-17" x1="213.01" y1="2525.34" x2="160.35" y2="2551.13"/></g><g id="ben-10" data-name="ben"><path class="cls-7" d="M169,2797.24c10.62,39,80-33.7,62.18,120.58-.51,4.31-10.23-1.18-12.6-2,17.22-161.63-63.13-49.32-62.68-124.56C155.9,2786,166.85,2789.65,169,2797.24Z"/><path d="M217.63,2913.87c.87,5.76-.06,10.84-2.13,16.52,20.48,1.18,40.13,7.34,60.81,7.25S224.25,2914.36,217.63,2913.87Z"/><path class="cls-7" d="M110,2799.6c10.63,39,80-33.7,62.18,120.58-.5,4.31-10.23-1.18-12.6-1.95,17.22-161.63-63.13-49.32-62.68-124.56C96.89,2788.37,107.83,2792,110,2799.6Z"/><path d="M158.61,2916.23c.87,5.76-.06,10.84-2.13,16.52,20.48,1.18,40.14,7.34,60.81,7.25S165.23,2916.72,158.61,2916.23Z"/></g><g id="krop-10" data-name="krop"><ellipse class="cls-8" cx="133.91" cy="2767.67" rx="54.05" ry="32.6"/><path class="cls-9" d="M124,2733.26s13.79-.92,21.71,0l-10.95,13.89Z"/><polygon class="cls-9" points="133.91 2747.21 124.99 2755.04 133.91 2796.8 142.84 2755.04 133.91 2747.21"/><rect class="cls-10" x="118.22" y="2761.32" width="31.87" height="47.21" rx="14.16" ry="14.16"/></g><g id="arme-10" data-name="arme"><path class="cls-7" d="M87.7,2752c-77.25,21.24,6.45,39.92,34.4,35.87.51-.07,2.53-11.07-7.25-10s-26.35-4.65-37.45-7.08c-5.21-1.18,14.58-6.56,16.78-7C94.33,2763.68,90.78,2751.11,87.7,2752Z"/><path class="cls-11" d="M121.13,2789.13c-3.89.88-2.21-10.83.3-10C134,2783,131.31,2786.82,121.13,2789.13Z"/><path class="cls-7" d="M180.49,2750.6c78.74,20.29-12.51,41.71-35,39.61-.4,0-4.91-10.62,6-10.8s25.31-6.94,39.17-9.31c6.51-1.11-13.64-7.38-16.89-6.82C173.55,2763.31,177.33,2749.88,180.49,2750.6Z"/><path class="cls-11" d="M146.65,2790.83c3,.8,2.15-11.62-.77-10.63C131.27,2785.59,138.88,2788.7,146.65,2790.83Z"/></g></g><g id="Layer_13" data-name="Layer 13"><rect class="cls-23" y="2940" width="350" height="490"/><g id="hoved-11" data-name="hoved"><path class="cls-2" d="M135.33,3238.92c.79-2.75,152.51-214.35,95.52-268.44-8.27-7.82-36.88-21.16-56-6.74-7.91,5.9-23.61,19.27-43.05,59.18,0,0-22.43-69.64-67.28-63.74C64.51,2959.18-58.25,2975.71,135.33,3238.92Z"/><polygon class="cls-3" points="186.35 2940 161.95 2988.63 210.12 2985.09 186.35 2940"/><polygon class="cls-3" points="231.61 3030.62 256.62 2982.29 208.41 2985.23 231.61 3030.62"/><circle class="cls-3" cx="208.69" cy="2984.74" r="9.23"/><polygon class="cls-3" points="5.02 2985.73 35.72 3030.65 55.98 2986.81 5.02 2985.73"/><polygon class="cls-3" points="106.22 2990.11 76.1 2944.79 55.28 2988.37 106.22 2990.11"/><circle class="cls-3" cx="54.97" cy="2987.89" r="9.23"/></g><g id="ansigt-11" data-name="ansigt"><circle class="cls-4" cx="100.81" cy="3069.25" r="36.3"/><circle class="cls-4" cx="186.97" cy="3069.25" r="36.3"/><circle cx="104.35" cy="3081.05" r="21.64"/><circle cx="178.71" cy="3079.87" r="21.64"/><g id="Layer_7-2" data-name="Layer 7"><path class="cls-24" d="M76.9,3096.69h47.22S105.23,3119.12,76.9,3096.69Z"/><path class="cls-24" d="M211.46,3096.69H163.07S182.43,3119.12,211.46,3096.69Z"/></g><line class="cls-5" x1="81.04" y1="3107.9" x2="104.64" y2="3111.45"/><line class="cls-5" x1="83.4" y1="3110.27" x2="97.56" y2="3112.63"/><line class="cls-5" x1="180.18" y1="3111.45" x2="207.33" y2="3106.72"/><line class="cls-5" x1="183.73" y1="3113.81" x2="204.97" y2="3109.09"/><path class="cls-6" d="M170,3162.79H125.13s-17.7,3.54-9.44,15.35"/></g><g id="ben-11" data-name="ben"><path class="cls-7" d="M169,3287.24c10.62,39,80-33.7,62.18,120.58-.51,4.31-10.23-1.18-12.6-2,17.22-161.63-63.13-49.32-62.68-124.56C155.9,3276,166.85,3279.65,169,3287.24Z"/><path d="M217.63,3403.87c.87,5.76-.06,10.84-2.13,16.52,20.48,1.18,40.13,7.34,60.81,7.25S224.25,3404.36,217.63,3403.87Z"/><path class="cls-7" d="M110,3289.6c10.63,39,80-33.7,62.18,120.58-.5,4.31-10.23-1.18-12.6-1.95,17.22-161.63-63.13-49.32-62.68-124.56C96.89,3278.37,107.83,3282,110,3289.6Z"/><path d="M158.61,3406.23c.87,5.76-.06,10.84-2.13,16.52,20.48,1.18,40.14,7.34,60.81,7.25S165.23,3406.72,158.61,3406.23Z"/></g><g id="krop-11" data-name="krop"><ellipse class="cls-8" cx="133.91" cy="3257.67" rx="54.05" ry="32.6"/><path class="cls-9" d="M124,3223.26s13.79-.92,21.71,0l-10.95,13.89Z"/><polygon class="cls-9" points="133.91 3237.21 124.99 3245.04 133.91 3286.8 142.84 3245.04 133.91 3237.21"/><rect class="cls-10" x="118.22" y="3251.32" width="31.87" height="47.21" rx="14.16" ry="14.16"/></g><g id="arme-11" data-name="arme"><path class="cls-7" d="M87.7,3242c-77.25,21.24,6.45,39.92,34.4,35.87.51-.07,2.53-11.07-7.25-10s-26.35-4.65-37.45-7.08c-5.21-1.18,14.58-6.56,16.78-7C94.33,3253.68,90.78,3241.11,87.7,3242Z"/><path class="cls-11" d="M121.13,3279.13c-3.89.88-2.21-10.83.3-10C134,3273,131.31,3276.82,121.13,3279.13Z"/><path class="cls-7" d="M180.49,3240.6c78.74,20.29-12.51,41.71-35,39.61-.4,0-4.91-10.62,6-10.8s25.31-6.94,39.17-9.31c6.51-1.11-13.64-7.38-16.89-6.82C173.55,3253.31,177.33,3239.88,180.49,3240.6Z"/><path class="cls-11" d="M146.65,3280.83c3,.8,2.15-11.62-.77-10.63C131.27,3275.59,138.88,3278.7,146.65,3280.83Z"/></g></g><g id="Layer_14" data-name="Layer 14"><rect class="cls-25" x="350" y="1470" width="350" height="490"/><g id="hoved-12" data-name="hoved"><path class="cls-2" d="M485.33,1768.92c.79-2.75,152.51-214.35,95.52-268.44-8.27-7.82-36.88-21.16-56-6.74-7.91,5.9-23.61,19.27-43.05,59.18,0,0-22.43-69.64-67.28-63.74C414.51,1489.18,291.75,1505.71,485.33,1768.92Z"/><polygon class="cls-3" points="536.35 1470 511.95 1518.63 560.12 1515.09 536.35 1470"/><polygon class="cls-3" points="581.61 1560.62 606.62 1512.29 558.41 1515.23 581.61 1560.62"/><circle class="cls-3" cx="558.69" cy="1514.74" r="9.23"/><polygon class="cls-3" points="355.02 1515.73 385.72 1560.65 405.98 1516.81 355.02 1515.73"/><polygon class="cls-3" points="456.22 1520.11 426.1 1474.79 405.28 1518.37 456.22 1520.11"/><circle class="cls-3" cx="404.97" cy="1517.89" r="9.23"/></g><g id="ansigt-12" data-name="ansigt"><circle class="cls-4" cx="450.81" cy="1599.25" r="36.3"/><circle class="cls-4" cx="536.97" cy="1599.25" r="36.3"/><circle cx="450.81" cy="1600.43" r="21.64"/><circle cx="538.15" cy="1600.43" r="21.64"/><line class="cls-5" x1="431.04" y1="1637.9" x2="454.64" y2="1641.45"/><line class="cls-5" x1="433.4" y1="1640.27" x2="447.56" y2="1642.63"/><line class="cls-5" x1="530.18" y1="1641.45" x2="557.33" y2="1636.72"/><line class="cls-5" x1="533.73" y1="1643.81" x2="554.97" y2="1639.09"/><path class="cls-6" d="M520,1692.79H475.13s-17.7,3.54-9.44,15.35"/></g><g id="ben-12" data-name="ben"><path class="cls-7" d="M519,1817.24c10.62,39,80-33.7,62.18,120.58-.51,4.31-10.23-1.18-12.6-2,17.22-161.63-63.13-49.32-62.68-124.56C505.9,1806,516.85,1809.65,519,1817.24Z"/><path class="cls-7" d="M460,1819.6c10.63,39,80-33.7,62.18,120.58-.5,4.31-10.23-1.18-12.6-2,17.22-161.63-63.13-49.32-62.68-124.56C446.89,1808.37,457.83,1812,460,1819.6Z"/><path d="M508.61,1936.23c.87,5.76-.06,10.84-2.13,16.52,20.48,1.18,40.14,7.34,60.81,7.25S515.23,1936.72,508.61,1936.23Z"/><path d="M567.63,1935.05c.87,5.76-.06,10.84-2.13,16.52,20.48,1.18,40.13,7.34,60.81,7.25S574.25,1935.54,567.63,1935.05Z"/></g><g id="krop-12" data-name="krop"><ellipse class="cls-8" cx="483.91" cy="1787.67" rx="54.05" ry="32.6"/><path class="cls-9" d="M474,1753.26s13.79-.92,21.71,0l-10.95,13.89Z"/><polygon class="cls-9" points="483.92 1767.21 474.99 1775.04 483.92 1816.8 492.84 1775.04 483.92 1767.21"/><rect class="cls-10" x="468.22" y="1781.32" width="31.87" height="47.21" rx="14.16" ry="14.16"/></g><g id="arme-12" data-name="arme"><path class="cls-7" d="M437.53,1771.78c-78.74,20.29,12.51,41.71,35,39.61.4,0,4.92-10.62-6-10.8s-25.31-6.94-39.16-9.31c-6.52-1.11,13.63-7.38,16.88-6.82C444.53,1784.49,440.74,1771.06,437.53,1771.78Z"/><path class="cls-11" d="M471.76,1812c-3,.8-2.15-11.62.76-10.63C487.1,1806.77,479.52,1809.88,471.76,1812Z"/><path class="cls-7" d="M530.49,1770.6c78.74,20.29-12.51,41.71-35,39.61-.4,0-4.91-10.62,6-10.8s25.31-6.94,39.17-9.31c6.51-1.11-13.64-7.38-16.89-6.82C523.55,1783.31,527.33,1769.88,530.49,1770.6Z"/><path class="cls-11" d="M496.65,1810.83c3,.8,2.15-11.62-.77-10.63C481.27,1805.59,488.88,1808.7,496.65,1810.83Z"/></g></g></svg>